<?xml version="1.0" encoding="utf-8"?>
<!-- Generator: Adobe Illustrator 16.0.3, SVG Export Plug-In . SVG Version: 6.00 Build 0)  -->
<!DOCTYPE svg PUBLIC "-//W3C//DTD SVG 1.1//EN" "http://www.w3.org/Graphics/SVG/1.1/DTD/svg11.dtd">
<svg version="1.1" id="Layer_1" xmlns="http://www.w3.org/2000/svg" xmlns:xlink="http://www.w3.org/1999/xlink" x="0px" y="0px"
	 width="307px" height="98px" viewBox="0 0 307 98" enable-background="new 0 0 307 98" xml:space="preserve">
<polygon fill="#F7B813" points="12.86,21.177 3.174,30.132 25.749,30.132 25.749,21.177 "/>
<polygon fill="#0043FF" points="35.424,21.165 25.749,30.132 25.749,62.296 37.574,62.296 37.642,30.144 48.325,30.144 
	58.036,21.165 "/>
<path fill="#0043FF" d="M76.753,32.935h-6.204l-2.245,4.781h-3.201l7.86-16.37h2.498l7.214,16.37h-3.818L76.753,32.935z
	 M75.743,30.596l-1.965-4.495l-2.106,4.495H75.743z"/>
<polygon fill="#0043FF" points="97.218,37.716 91.378,30.596 89.021,32.987 89.021,37.716 85.596,37.716 85.596,21.086 
	89.021,21.086 89.021,29.219 96.91,21.086 100.67,21.086 93.596,28.31 101.315,37.716 "/>
<path fill="#0043FF" d="M113.359,32.935h-6.204l-2.245,4.781h-3.201l7.86-16.37h2.499l7.214,16.37h-3.818L113.359,32.935z
	 M112.348,30.596l-1.965-4.495l-2.106,4.495H112.348z"/>
<g>
	<defs>
		<rect id="SVGID_1_" x="-61.997" y="-62.668" width="360.997" height="236.276"/>
	</defs>
	<clipPath id="SVGID_2_">
		<use xlink:href="#SVGID_1_"  overflow="visible"/>
	</clipPath>
	<path clip-path="url(#SVGID_2_)" fill="#0043FF" d="M139.017,29.115c0,3.689-2.106,8.705-11.648,8.705
		c-1.125,0-3.258-0.052-5.167-0.233v-16.11c1.572-0.208,3.846-0.39,5.614-0.39C136.293,21.086,139.017,25.088,139.017,29.115
		 M135.339,29.297c0-2.937-1.74-5.769-7.27-5.769c-0.787,0-1.741,0.052-2.442,0.129v11.667c0.702,0.079,1.629,0.13,2.301,0.13
		C133.627,35.455,135.339,32.208,135.339,29.297"/>
	<polygon clip-path="url(#SVGID_2_)" fill="#0043FF" points="154.458,35.273 154.035,37.716 142.864,37.716 142.864,21.319 
		153.923,21.319 153.475,23.789 146.289,23.789 146.289,28.023 152.716,28.023 152.267,30.363 146.289,30.363 146.289,35.273 	"/>
	<polygon clip-path="url(#SVGID_2_)" fill="#0043FF" points="177.307,21.346 177.307,37.716 173.883,37.716 173.883,27.686 
		168.101,35.741 166.585,35.741 160.746,27.79 160.746,37.716 157.742,37.716 157.742,21.346 160.072,21.346 167.735,31.792 
		175.146,21.346 	"/>
	<rect x="182.11" y="21.346" clip-path="url(#SVGID_2_)" fill="#0043FF" width="3.423" height="16.37"/>
	<path clip-path="url(#SVGID_2_)" fill="#0043FF" d="M200.299,32.935h-6.204l-2.247,4.781h-3.2l7.86-16.37h2.497l7.216,16.37h-3.818
		L200.299,32.935z M199.287,30.596l-1.965-4.495l-2.104,4.495H199.287z"/>
	<polygon clip-path="url(#SVGID_2_)" fill="#0043FF" points="80.402,48.265 74.62,48.265 74.62,62.193 71.195,62.193 71.195,48.265 
		65.244,48.265 65.244,45.823 80.851,45.823 	"/>
	<path clip-path="url(#SVGID_2_)" fill="#0043FF" d="M91.07,57.412h-6.203l-2.246,4.781h-3.2l7.859-16.37h2.499l7.214,16.37h-3.819
		L91.07,57.412z M90.06,55.074l-1.965-4.496l-2.105,4.496H90.06z"/>
	<path clip-path="url(#SVGID_2_)" fill="#0043FF" d="M115.239,62.193h-4.07l-3.79-4.573c-1.74-2.053-2.667-2.208-4.042-2.208v6.782
		h-3.425v-16.24c1.572-0.208,3.874-0.389,5.305-0.389c4.884,0,7.187,1.948,7.187,4.521c0,2.131-1.544,3.665-4.211,4.418
		c0.786,0.364,1.516,0.987,2.33,1.974L115.239,62.193z M103.338,53.229c3.677,0.156,5.445-0.883,5.445-2.729
		c0-1.299-0.842-2.546-3.622-2.546c-0.478,0-1.207,0.052-1.824,0.13V53.229z"/>
	<polygon clip-path="url(#SVGID_2_)" fill="#0043FF" points="134.16,45.823 134.16,62.297 132.392,62.297 120.742,51.332 
		120.742,62.193 117.739,62.193 117.739,45.823 119.507,45.823 131.157,56.789 131.157,45.823 	"/>
	<path clip-path="url(#SVGID_2_)" fill="#0043FF" d="M156.927,53.956c0,5.016-4.435,8.498-9.487,8.498
		c-4.913,0-9.405-3.3-9.405-8.393c0-5.015,4.407-8.497,9.46-8.497C152.408,45.563,156.927,48.863,156.927,53.956 M153.25,54.06
		c0-3.976-2.835-6.054-5.895-6.054c-3.229,0-5.67,2.338-5.67,5.949c0,3.976,2.834,6.055,5.895,6.055
		C150.808,60.011,153.25,57.697,153.25,54.06"/>
	<polygon clip-path="url(#SVGID_2_)" fill="#0043FF" points="183.4,45.823 177.646,62.323 175.204,62.323 171.132,51.877 
		167.091,62.323 164.621,62.323 158.389,45.823 162.094,45.823 166.276,57.126 169.701,48.239 168.859,46.083 172.368,46.083 
		176.549,57.126 180.2,45.823 	"/>
	<path clip-path="url(#SVGID_2_)" fill="#0043FF" d="M185.366,60.738l-0.364-3.378c1.823,1.558,3.901,2.521,5.753,2.521
		c1.854,0,2.835-0.832,2.835-2.001c0-3.169-7.831-2.364-7.831-7.483c0-2.754,2.33-4.833,6.371-4.833c1.966,0,3.482,0.494,4.407,1.04
		v2.988c-1.207-0.883-2.75-1.585-4.463-1.585c-1.769,0-2.75,0.779-2.75,1.922c0,3.066,7.916,2.157,7.916,7.483
		c0,3.066-2.582,5.042-6.372,5.042C188.903,62.453,186.966,61.881,185.366,60.738"/>
	<polygon clip-path="url(#SVGID_2_)" fill="#0043FF" points="212.707,62.193 206.869,55.073 204.51,57.464 204.51,62.193 
		201.086,62.193 201.086,45.563 204.51,45.563 204.51,53.696 212.399,45.563 216.159,45.563 209.086,52.787 216.806,62.193 	"/>
	<path clip-path="url(#SVGID_2_)" fill="#0043FF" d="M228.848,57.412h-6.203l-2.246,4.781h-3.2l7.858-16.37h2.5l7.214,16.37h-3.819
		L228.848,57.412z M227.838,55.074l-1.965-4.496l-2.106,4.496H227.838z"/>
</g>
</svg>
